# AST/ASF file generated using VICON BodyLanguage
# -----------------------------------------------
:version 1.10
:name VICON
:units
  mass 1.0
  length 0.45
  angle deg
:documentation
   .ast/.asf automatically generated from VICON data using
   VICON BodyBuilder and BodyLanguage model FoxedUp or BRILLIANT.MOD
:root
   order TX TY TZ RX RY RZ
   axis XYZ
   position 0 0 0  
   orientation 0 0 0 
:bonedata
  begin
     id 1 
     name lhipjoint
     direction 0.78388 -0.462562 0.414208 
     length 3.01181 
     axis 0 0 0  XYZ
  end
  begin
     id 2 
     name lfemur
     direction 0.34202 -0.939693 0  
     length 6.04673  
     axis 0 0 20  XYZ
    dof rx ry rz
    limits (-160.0 20.0)
           (-70.0 70.0)
           (-60.0 70.0)
  end
  begin
     id 3 
     name ltibia
     direction 0.34202 -0.939693 0   
     length 7.211   
     axis 0 0 20   XYZ
    dof rx
    limits (-10.0 170.0)
  end
  begin
     id 4 
     name lfoot
     direction 0.121887 -0.334882 0.934344   
     length 2.13567   
     axis -90 7.62852e-016 20   XYZ
    dof rx rz
    limits (-45.0 90.0)
           (-70.0 20.0)
  end
  begin
     id 5 
     name ltoes
     direction 1.53555e-011 -4.2179e-011 1   
     length 1.05957   
     axis -90 7.62852e-016 20   XYZ
    dof rx
    limits (-90.0 20.0)
  end
  begin
     id 6 
     name rhipjoint
     direction -0.769387 -0.475875 0.426129   
     length 2.92756  
     axis 0 0 0  XYZ 
  end
  begin
     id 7 
     name rfemur
     direction -0.34202 -0.939693 0   
     length 6.35468   
     axis 0 0 -20   XYZ
    dof rx ry rz
    limits (-160.0 20.0)
           (-70.0 70.0)
           (-70.0 60.0)
  end
  begin
     id 8 
     name rtibia
     direction -0.34202 -0.939693 0   
     length 7.37886   
     axis 0 0 -20   XYZ
    dof rx
    limits (-10.0 170.0)
 end
 begin
     id 9 
     name rfoot
     direction -0.101763 -0.279592 0.954711   
     length 2.21478  
     axis -90 -7.62852e-016 -20   XYZ
    dof rx rz
    limits (-45.0 90.0)
           (-20.0 70.0)
  end
  begin
     id 10 
     name rtoes
     direction -1.53494e-011 -4.21851e-011 1   
     length 1.10506   
     axis -90 -7.62852e-016 -20   XYZ
    dof rx
    limits (-90.0 20.0)
  end
  begin
     id 11 
     name lowerback
     direction 0.00747405 0.999267 0.0375481   
     length 2.13259   
     axis 0 0 0   XYZ
    dof rx ry rz
    limits (-20.0 45.0)
           (-30.0 30.0)
           (-30.0 30.0)
  end
  begin
     id 12 
     name upperback
     direction 0.00661626 0.996177 0.0871029   
     length 2.10528   
     axis 0 0 0   XYZ
    dof rx ry rz
    limits (-20.0 45.0)
           (-30.0 30.0)
           (-30.0 30.0)
  end
  begin
     id 13 
     name thorax
     direction 0.00320659 0.997679 0.0680167   
     length 2.11338   
     axis 0 0 0   XYZ
    dof rx ry rz
    limits (-20.0 45.0)
           (-30.0 30.0)
           (-30.0 30.0)
  end
  begin
     id 14 
     name lowerneck
     direction 0.0374841 0.973033 0.227602   
     length 1.42765   
     axis 0 0 0   XYZ
    dof rx ry rz
    limits (-20.0 45.0)
           (-30.0 30.0)
           (-30.0 30.0)
  end
  begin
     id 15 
     name upperneck
     direction 0.00481585 0.989155 -0.146795   
     length 1.47593   
     axis 0 0 0   XYZ
    dof rx ry rz
    limits (-20.0 45.0)
           (-30.0 30.0)
           (-30.0 30.0)
  end
  begin
     id 16
     name head
     direction -0.00292522 0.997206 -0.0746423  
     length 1.48116  
     axis 0 0 0   XYZ
    dof rx ry rz
    limits (-20.0 45.0)
           (-30.0 30.0)
           (-30.0 30.0)
  end
  begin
     id 17 
     name lclavicle
     direction 0.951444 0.305606 0.0368784  
     length 3.01855  
     axis 0 0 0   XYZ
    dof ry rz
    limits (-20.0 10.0)
           (0.0 20.0)
  end
  begin
     id 18 
     name lhumerus
     direction 1 -4.48977e-011 2.61664e-027   
     length 5.52731   
     axis 180 -30 -90   XYZ
    dof rx ry rz
    limits (-60.0 90.0)
           (-90.0 90.0)
           (-90.0 90.0)
  end
  begin
     id 19
     name lradius
     direction 1 -4.48944e-011 8.22157e-027   
     length 3.11059   
     axis 180 -30 -90   XYZ
    dof rx
    limits (-10.0 170.0)
  end
  begin
     id 20
     name lwrist
     direction 1 -4.48976e-011 1.5779e-026   
     length 1.5553   
     axis -1.15221e-014 90 90   XYZ
    dof ry
    limits (-180.0 0.0)
 end
  begin
     id 21 
     name lhand
     direction 1 -4.49025e-011 3.1558e-026   
     length 0.419626   
     axis -2.01367e-014 90 90   XYZ
    dof rx rz
    limits (-90.0 90.0)
           (-45.0 45.0)
  end
  begin
     id 22 
     name lfingers
     direction 1 -4.4904e-011 6.31161e-026   
     length 0.338313   
     axis -4.02734e-014 90 90   XYZ
    dof rx
    limits (0.0 90.0)
  end
  begin
     id 23
     name lthumb
     direction 0.707107 -6.35004e-011 0.707107   
     length 0.485752   
     axis -90 45 2.85299e-015   XYZ
    dof rx rz
    limits (-45.0 45.0)
           (-45.0 45.0)
  end
  begin
     id 24 
     name rclavicle
     direction -0.968876 0.223791 0.105816   
     length 3.04177  
     axis 0 0 0   XYZ 
    dof ry rz
    limits (-10.0 20.0)
           (-20.0 0.0)
  end
  begin
     id 25 
     name rhumerus
     direction -1 -4.48962e-011 -1.01384e-027  
     length 5.25396   
     axis 180 30 90   XYZ
    dof rx ry rz
    limits (-90.0 60.0)
           (-90.0 90.0)
           (-90.0 90.0)
  end
  begin
     id 26 
     name rradius
     direction -1 -4.48955e-011 8.88542e-027   
     length 3.10567   
     axis 180 30 90   XYZ
    dof rx
    limits (-10.0 170.0)
  end
  begin
     id 27 
     name rwrist
     direction -1 -4.48994e-011 1.5779e-026   
     length 1.55283   
     axis -1.15221e-014 -90 -90   XYZ
    dof ry
    limits (-180.0 0.0)
  end
  begin
     id 28
     name rhand
     direction -1 -4.48891e-011 3.1558e-026   
     length 0.498676   
     axis -2.01367e-014 -90 -90   XYZ
    dof rx rz
    limits (-90.0 90.0)
           (-45.0 45.0)
  end
  begin
     id 29
     name rfingers
     direction -1 -4.48972e-011 6.31161e-026   
     length 0.402045   
     axis -4.02734e-014 -90 -90   XYZ
    dof rx
    limits (0.0 90.0)
  end
  begin
     id 30
     name rthumb
     direction -0.707107 -6.34849e-011 0.707107   
     length 0.577259   
     axis -90 -45 -2.85299e-015   XYZ
    dof rx rz
    limits (-45.0 45.0)
           (-45.0 45.0)
  end
:hierarchy
  begin
    root lhipjoint rhipjoint lowerback
    lhipjoint lfemur
    lfemur ltibia
    ltibia lfoot
    lfoot ltoes
    rhipjoint rfemur
    rfemur rtibia
    rtibia rfoot
    rfoot rtoes
    lowerback upperback
    upperback thorax
    thorax lowerneck lclavicle rclavicle
    lowerneck upperneck
    upperneck head
    lclavicle lhumerus
    lhumerus lradius
    lradius lwrist
    lwrist lhand lthumb
    lhand lfingers
    rclavicle rhumerus
    rhumerus rradius
    rradius rwrist
    rwrist rhand rthumb
    rhand rfingers
  end

#!OML:ASF H:\Pregnant\Project 1\Capture day 1\Session 1\femalepreg.ASF
:FULLY-SPECIFIED
:DEGREES
518
root 10.8423 15.99 3.81765 33.097 -11.9206 -2.52817
lowerback -11.3126 0.343993 -3.53758
upperback -4.96935 0.777455 1.22325
thorax 1.08357 0.44149 3.35733
lowerneck -43.7165 4.01949 2.34033
upperneck 4.02771 4.14698 -2.14913
head 7.47208 1.6988 -0.445464
rclavicle 1.2275e-014 1.37161e-014
rhumerus 50.2554 12.3821 -80.6295
rradius 70.5937
rwrist -36.8482
rhand -21.8867 -27.759
rfingers 7.12502
rthumb 4.51814 -57.6908
lclavicle 1.2275e-014 1.37161e-014
lhumerus 49.135 -10.8864 74.2531
lradius 70.371
lwrist 51.74
lhand -32.4082 3.68491
lfingers 7.12502
lthumb -5.64286 33.5898
rfemur -53.9525 17.8861 9.12947
rtibia 37.975
rfoot -10.7272 -15.0157
rtoes -13.9925
lfemur -42.6753 -9.94734 -15.7391
ltibia 18.3588
lfoot -3.82494 3.03862
ltoes -38.5898
519
root 10.8356 15.9922 3.81601 33.1747 -11.9927 -2.50817
lowerback -11.2703 0.374541 -3.43524
upperback -4.94852 0.808037 1.14747
thorax 1.08315 0.454383 3.22344
lowerneck -43.7031 4.02337 2.40436
upperneck 4.24717 4.13106 -2.18122
head 7.55214 1.68829 -0.467488
rclavicle -2.37548e-014 -1.45113e-014
rhumerus 49.3857 12.5337 -81.0306
rradius 71.5564
rwrist -37.0938
rhand -22.1482 -28.91
rfingers 7.12502
rthumb 4.26567 -58.847
lclavicle -2.37548e-014 -1.45113e-014
lhumerus 47.7313 -11.2351 74.4011
lradius 72.1711
lwrist 52.9256
lhand -33.1964 4.34593
lfingers 7.12502
lthumb -6.4038 34.2291
rfemur -54.0589 17.7564 9.17649
rtibia 37.9894
rfoot -10.6985 -14.8084
rtoes -14.0286
lfemur -42.718 -9.95511 -15.7114
ltibia 18.2849
lfoot -3.71145 3.08814
ltoes -38.7987
520
root 10.829 15.994 3.81626 33.2392 -12.0758 -2.48425
lowerback -11.2601 0.401577 -3.33574
upperback -4.93379 0.835355 1.0627
thorax 1.09435 0.46543 3.08197
lowerneck -43.6373 4.0502 2.51972
upperneck 4.48676 4.12333 -2.2325
head 7.63582 1.68094 -0.50288
rclavicle 2.27111e-014 5.66536e-015
rhumerus 48.2922 12.6713 -81.4165
rradius 72.6558
rwrist -37.5567
rhand -21.7161 -29.6923
rfingers 7.12502
rthumb 4.68289 -59.6205
lclavicle 2.27111e-014 5.66536e-015
lhumerus 46.1191 -11.5997 74.5881
lradius 74.0047
lwrist 53.8263
lhand -33.7501 5.0501
lfingers 7.12502
lthumb -6.93835 34.9164
rfemur -54.1551 17.6503 9.20994
rtibia 38.0145
rfoot -10.6788 -14.6184
rtoes -14.0707
lfemur -42.7377 -9.9566 -15.6986
ltibia 18.2172
lfoot -3.61849 3.14453
ltoes -38.9681
521
root 10.8225 15.9954 3.81855 33.2847 -12.1615 -2.45988
lowerback -11.2846 0.44086 -3.22909
upperback -4.88388 0.880458 0.95047
thorax 1.16054 0.483572 2.91098
lowerneck -43.7631 4.08404 2.66969
upperneck 4.8661 4.0997 -2.2658
head 7.78985 1.66722 -0.537524
rclavicle 2.80286e-014 -1.43125e-014
rhumerus 47.0754 12.8758 -81.5565
rradius 73.9223
rwrist -38.267
rhand -21.6294 -30.1959
rfingers 7.12502
rthumb 4.76658 -60.1223
lclavicle 2.80286e-014 -1.43125e-014
lhumerus 44.4328 -12.0804 74.7121
lradius 75.8717
lwrist 54.3489
lhand -34.4847 6.10629
lfingers 7.12502
lthumb -7.64742 35.948
rfemur -54.2291 17.5726 9.23462
rtibia 38.0469
rfoot -10.6702 -14.456
rtoes -14.1156
lfemur -42.7318 -9.94821 -15.7007
ltibia 18.1635
lfoot -3.55643 3.19921
ltoes -39.0903
522
root 10.816 15.9963 3.82296 33.3147 -12.2459 -2.43745
lowerback -11.3343 0.472001 -3.1485
upperback -4.81715 0.91796 0.859872
thorax 1.25784 0.497792 2.77711
lowerneck -43.9451 4.13146 2.82329
upperneck 5.3024 4.0908 -2.30459
head 7.97164 1.65931 -0.571612
rclavicle -1.36664e-014 9.83984e-015
rhumerus 45.7376 13.2695 -81.3817
rradius 75.3511
rwrist -39.0991
rhand -22.1099 -30.7765
rfingers 7.12502
rthumb 4.30262 -60.7128
lclavicle -1.36664e-014 9.83984e-015
lhumerus 42.6288 -12.6428 74.8194
lradius 77.8023
lwrist 54.4984
lhand -35.6669 7.65351
lfingers 7.12502
lthumb -8.78839 37.4505
rfemur -54.2801 17.5201 9.25484
rtibia 38.0835
rfoot -10.6758 -14.3206
rtoes -14.151
lfemur -42.7082 -9.92173 -15.7201
ltibia 18.1307
lfoot -3.52754 3.2433
ltoes -39.1754
523
root 10.8096 15.9965 3.82956 33.3244 -12.3249 -2.41975
lowerback -11.4045 0.492784 -3.10145
upperback -4.73494 0.945268 0.802824
thorax 1.38191 0.507075 2.69652
lowerneck -44.1409 4.1775 2.93655
upperneck 5.76304 4.09556 -2.3141
head 8.16346 1.66061 -0.586383
rclavicle -1.37161e-014 -8.54774e-015
rhumerus 44.2933 13.8455 -80.9592
rradius 76.9157
rwrist -39.8775
rhand -22.8829 -31.855
rfingers 7.12502
rthumb 3.55614 -61.805
lclavicle -1.37161e-014 -8.54774e-015
lhumerus 40.6826 -13.2794 74.9599
lradius 79.8086
lwrist 54.3736
lhand -37.3246 9.43481
lfingers 7.12502
lthumb -10.3877 39.1582
rfemur -54.298 17.491 9.27829
rtibia 38.1213
rfoot -10.6961 -14.2127
rtoes -14.1808
lfemur -42.6661 -9.88393 -15.7512
ltibia 18.1252
lfoot -3.53054 3.28176
ltoes -39.2304
524
root 10.8032 15.9961 3.83837 33.312 -12.3993 -2.40508
lowerback -11.4848 0.503223 -3.07969
upperback -4.63332 0.961457 0.772523
thorax 1.53146 0.510696 2.65718
lowerneck -44.3497 4.22847 3.02682
upperneck 6.21743 4.11458 -2.30876
head 8.35481 1.66994 -0.589721
rclavicle -2.17172e-014 4.77083e-015
rhumerus 42.7629 14.5754 -80.4018
rradius 78.5508
rwrist -40.4501
rhand -23.7138 -33.2813
rfingers 7.12502
rthumb 2.75374 -63.2433
lclavicle -2.17172e-014 4.77083e-015
lhumerus 38.6044 -13.9601 75.1671
lradius 81.8838
lwrist 54.1524
lhand -39.2318 11.1992
lfingers 7.12502
lthumb -12.2271 40.8218
rfemur -54.2805 17.4814 9.30533
rtibia 38.1588
rfoot -10.731 -14.1274
rtoes -14.2009
lfemur -42.6061 -9.84414 -15.7906
ltibia 18.1485
lfoot -3.56061 3.32358
ltoes -39.2614
525
root 10.797 15.995 3.84908 33.2786 -12.4634 -2.39518
lowerback -11.5616 0.502357 -3.06603
upperback -4.51115 0.96319 0.761793
thorax 1.70097 0.506759 2.64121
lowerneck -44.5748 4.28369 3.09039
upperneck 6.63546 4.1458 -2.27679
head 8.53434 1.68777 -0.577118
rclavicle -3.45388e-014 2.98177e-016
rhumerus 41.1643 15.4126 -79.8163
rradius 80.1848
rwrist -40.7759
rhand -24.3946 -34.8583
rfingers 7.12502
rthumb 2.09625 -64.8278
lclavicle -3.45388e-014 2.98177e-016
lhumerus 36.408 -14.6459 75.4679
lradius 83.9846
lwrist 53.9817
lhand -41.074 12.7714
lfingers 7.12502
lthumb -14.0029 42.2798
rfemur -54.227 17.4861 9.3412
rtibia 38.1944
rfoot -10.7787 -14.0645
rtoes -14.2142
lfemur -42.5321 -9.81421 -15.828
ltibia 18.1996
lfoot -3.60976 3.37539
ltoes -39.2751
526
root 10.7911 15.9933 3.86137 33.227 -12.5176 -2.38654
lowerback -11.6448 0.493172 -3.04622
upperback -4.37297 0.953568 0.751894
thorax 1.89156 0.496557 2.62149
lowerneck -44.7343 4.33823 3.14227
upperneck 6.95891 4.17708 -2.21776
head 8.67144 1.71 -0.553528
rclavicle -8.10048e-015 -2.38542e-015
rhumerus 39.4907 16.3045 -79.2981
rradius 81.757
rwrist -40.9142
rhand -24.7888 -36.3557
rfingers 7.12502
rthumb 1.7155 -66.3285
lclavicle -8.10048e-015 -2.38542e-015
lhumerus 34.1017 -15.3411 75.8522
lradius 86.0521
lwrist 53.9068
lhand -42.6786 13.9619
lfingers 7.12502
lthumb -15.5488 43.3568
rfemur -54.1435 17.503 9.38101
rtibia 38.2277
rfoot -10.8353 -14.0246
rtoes -14.234
lfemur -42.4469 -9.79774 -15.8641
ltibia 18.2745
lfoot -3.67356 3.43805
ltoes -39.2824
527
root 10.7854 15.9912 3.8749 33.1561 -12.5604 -2.37832
lowerback -11.7288 0.476329 -3.01362
upperback -4.22475 0.932592 0.737358
thorax 2.09425 0.480297 2.58832
lowerneck -44.8048 4.39051 3.18853
upperneck 7.17233 4.20468 -2.13533
head 8.75749 1.73488 -0.522159
rclavicle 1.19768e-014 -1.98785e-014
rhumerus 37.731 17.2251 -78.8904
rradius 83.2374
rwrist -40.9677
rhand -24.9322 -37.5783
rfingers 7.12502
rthumb 1.57709 -67.5522
lclavicle 1.19768e-014 -1.98785e-014
lhumerus 31.6972 -16.049 76.3119
lradius 88.0141
lwrist 53.8711
lhand -44.0045 14.5914
lfingers 7.12502
lthumb -16.8256 43.8824
rfemur -54.0309 17.5314 9.4243
rtibia 38.2578
rfoot -10.9027 -14.0101
rtoes -14.2416
lfemur -42.3482 -9.7922 -15.9009
ltibia 18.3683
lfoot -3.75274 3.50472
ltoes -39.2864
